<svg width="665" height="504" viewBox="0 0 665 504" fill="none" xmlns="http://www.w3.org/2000/svg">
<g opacity="0.08">
<path d="M647.015 346.65C643.329 371.738 636.686 393.523 627.086 412.004C617.486 430.485 605.517 445.558 591.18 457.223C576.843 468.888 560.352 476.985 541.708 481.514C523.119 485.669 502.778 486.124 480.686 482.879C460.466 479.908 442.239 473.788 426.004 464.518C409.825 454.873 396.359 442.375 385.608 427.025C375.232 411.73 367.916 393.824 363.662 373.307C359.408 352.791 359.151 329.802 362.892 304.339C367.787 271.013 377.557 243.568 392.201 222.002C407.219 200.492 426.28 185.313 449.384 176.466C472.917 167.3 499.287 164.862 528.494 169.152C556.203 173.222 579.634 182.976 598.788 198.413C618.371 213.531 632.449 233.578 641.021 258.554C649.967 283.585 651.965 312.95 647.015 346.65ZM424.031 313.894C420.731 336.361 420.679 356.245 423.875 373.546C427.127 390.472 434.111 404.122 444.828 414.494C455.546 424.867 470.265 431.428 488.988 434.178C507.71 436.929 523.695 434.878 536.942 428.026C550.19 421.173 560.805 410.109 568.787 394.833C576.824 379.183 582.492 360.124 585.793 337.657C589.203 314.441 589.068 294.53 585.387 277.923C582.08 261.371 575.041 248.096 564.269 238.098C553.926 227.781 539.206 221.219 520.109 218.414C492.026 214.289 470.243 220.652 454.762 237.504C439.28 254.356 429.037 279.82 424.031 313.894Z" fill="#BE0028"/>
<path d="M243.856 80.2885C224.011 77.3732 205.702 78.3176 188.93 83.1219C172.213 87.5517 157.248 95.6815 144.034 107.511C131.195 119.396 120.377 134.447 111.581 152.664C103.159 170.936 97.1874 192.054 93.6671 216.019C89.0465 247.472 89.7117 275.494 95.6625 300.085C101.668 324.302 113.125 343.963 130.032 359.07C146.939 374.178 169.622 383.821 198.08 388.002C215.304 390.532 232 391.455 248.167 390.769C295.302 393.52 350.679 348.464 372.104 262.96L368.648 377.391C334.23 430.266 279.347 441.785 241.055 443.087C224.14 443.662 204.823 442.355 183.105 439.165C142.29 433.169 109.453 419.738 84.5935 398.873C60.1085 378.062 43.4087 351.127 34.4941 318.068C25.5795 285.009 24.1751 247.697 30.2807 206.133C34.7362 175.803 42.9256 148.699 54.8488 124.821C67.2015 100.624 82.7761 80.5339 101.573 64.5512C120.369 48.5686 142.278 37.4421 167.298 31.1719C192.748 24.5822 221.012 23.5701 252.091 28.1356C272.312 31.1059 291.827 36.2679 310.638 43.6216C329.505 50.6008 346.224 59.1773 360.795 69.3509L330.903 116.601C318.677 108.685 305.218 101.352 290.526 94.6035C276.263 87.5354 260.707 82.7638 243.856 80.2885Z" fill="#BE0028"/>
</g>
</svg>
