<svg width="217" height="25" viewBox="0 0 217 25" fill="none" xmlns="http://www.w3.org/2000/svg">
<path d="M36.3013 15.3723C36.3013 16.7883 36.1079 18.0458 35.7211 19.1448C35.3344 20.2438 34.7864 21.1738 34.0773 21.9346C33.3682 22.6955 32.5087 23.2767 31.4988 23.6782C30.4889 24.0586 29.35 24.2489 28.0822 24.2489C26.9219 24.2489 25.8475 24.0586 24.8591 23.6782C23.8706 23.2767 23.0111 22.6955 22.2805 21.9346C21.5714 21.1738 21.0128 20.2438 20.6045 19.1448C20.1962 18.0458 19.9921 16.7778 19.9921 15.3406C19.9921 13.4596 20.3144 11.864 20.959 10.5536C21.6252 9.24327 22.5706 8.24994 23.7954 7.57363C25.0417 6.87619 26.5029 6.52747 28.1789 6.52747C29.769 6.52747 31.1657 6.87619 32.369 7.57363C33.5938 8.24994 34.5501 9.24327 35.2377 10.5536C35.9468 11.864 36.3013 13.4702 36.3013 15.3723ZM23.5053 15.3723C23.5053 16.6404 23.6665 17.7394 23.9888 18.6693C24.3111 19.5781 24.8161 20.2755 25.5037 20.7616C26.1913 21.2477 27.0723 21.4908 28.1467 21.4908C29.2211 21.4908 30.1021 21.2477 30.7897 20.7616C31.4773 20.2755 31.9823 19.5781 32.3046 18.6693C32.6269 17.7394 32.7881 16.6404 32.7881 15.3723C32.7881 14.062 32.6162 12.963 32.2724 12.0753C31.95 11.1877 31.4451 10.5113 30.7575 10.0464C30.0913 9.56028 29.2103 9.31724 28.1145 9.31724C26.5029 9.31724 25.3318 9.8456 24.6012 10.9023C23.8706 11.9591 23.5053 13.4491 23.5053 15.3723Z" fill="#BE0028"/>
<path d="M11.4567 3.9279C10.3179 3.9279 9.29722 4.12867 8.39474 4.53023C7.49225 4.91066 6.71869 5.48129 6.07406 6.24214C5.45092 7.00298 4.96744 7.92234 4.62364 9.00021C4.30132 10.0781 4.14016 11.2933 4.14016 12.6459C4.14016 14.4212 4.40876 15.9641 4.94595 17.2744C5.48315 18.5636 6.28894 19.5569 7.36333 20.2544C8.43771 20.9518 9.79144 21.3006 11.4245 21.3006C12.413 21.3006 13.3584 21.216 14.2609 21.0469C16.9313 20.8163 19.6702 17.8776 20.1682 12.9796L20.9183 19.3299C19.4212 22.5306 16.4333 23.6125 14.2931 23.9952C13.3477 24.1643 12.2518 24.2488 11.0055 24.2488C8.66334 24.2488 6.70795 23.7733 5.13934 22.8223C3.59222 21.8712 2.43188 20.5186 1.65832 18.7644C0.884766 17.0102 0.497986 14.9602 0.497986 12.6142C0.497986 10.9023 0.734351 9.33836 1.20708 7.92234C1.7013 6.48518 2.4104 5.24881 3.33437 4.21321C4.25834 3.17762 5.3972 2.38507 6.75092 1.83557C8.12614 1.26493 9.70549 0.979614 11.489 0.979614C12.6493 0.979614 13.7882 1.10642 14.9055 1.36004C16.0229 1.59252 17.0328 1.93067 17.9353 2.3745L16.646 5.22767C15.894 4.88952 15.0774 4.59364 14.1964 4.34002C13.3369 4.06527 12.4237 3.9279 11.4567 3.9279Z" fill="#BE0028"/>
<path d="M114.134 21.2023C114.566 21.2023 115.009 21.1618 115.462 21.0808C115.915 20.9999 116.306 20.9088 116.635 20.8075V23.2369C116.285 23.3989 115.812 23.5305 115.215 23.6317C114.618 23.7532 114.021 23.8139 113.424 23.8139C112.518 23.8139 111.685 23.6621 110.923 23.3584C110.182 23.0547 109.585 22.5283 109.133 21.7793C108.68 21.0302 108.453 19.9876 108.453 18.6514V9.60198H106.138V8.14435L108.577 6.92965L109.719 3.46777H111.726V7.14222H116.481V9.60198H111.726V18.5907C111.726 19.4815 111.942 20.1394 112.374 20.5646C112.827 20.9897 113.414 21.2023 114.134 21.2023Z" fill="#BE0028"/>
<path d="M100.326 23.8139C98.8029 23.8139 97.4649 23.5203 96.3123 22.9332C95.1596 22.3461 94.2643 21.4351 93.6262 20.2001C92.9881 18.945 92.6691 17.3557 92.6691 15.4325C92.6691 13.408 93.0087 11.7681 93.6879 10.5129C94.3878 9.25777 95.3243 8.33662 96.4975 7.74952C97.6914 7.14218 99.0499 6.8385 100.573 6.8385C101.499 6.8385 102.364 6.93973 103.166 7.14217C103.99 7.32438 104.669 7.53695 105.204 7.77989L104.216 10.3915C103.64 10.1688 103.022 9.97646 102.364 9.8145C101.726 9.65254 101.118 9.57156 100.542 9.57156C99.513 9.57156 98.6588 9.79426 97.9795 10.2396C97.3209 10.6648 96.8269 11.3126 96.4975 12.1832C96.1888 13.0334 96.0344 14.1064 96.0344 15.4021C96.0344 16.637 96.1991 17.6796 96.5284 18.5299C96.8577 19.3802 97.3414 20.0281 97.9795 20.4734C98.6382 20.8986 99.4512 21.1112 100.419 21.1112C101.345 21.1112 102.158 21.0099 102.858 20.8075C103.558 20.605 104.216 20.3418 104.834 20.0179V22.8117C104.237 23.1559 103.588 23.409 102.889 23.5709C102.189 23.7329 101.335 23.8139 100.326 23.8139Z" fill="#BE0028"/>
<path d="M83.1205 6.8385C84.582 6.8385 85.8375 7.14218 86.8873 7.74952C87.937 8.33662 88.7397 9.18691 89.2955 10.3004C89.8718 11.4138 90.16 12.7298 90.16 14.2481V16.0094H78.9833C79.0245 17.6898 79.467 18.9753 80.3109 19.8661C81.1754 20.7569 82.3796 21.2023 83.9233 21.2023C84.9936 21.2023 85.9404 21.1112 86.7638 20.929C87.6077 20.7265 88.4722 20.433 89.3572 20.0483V22.7206C88.5339 23.085 87.69 23.3583 86.8255 23.5405C85.9816 23.7227 84.973 23.8139 83.7998 23.8139C82.1943 23.8139 80.7741 23.5001 79.5391 22.8725C78.3041 22.2449 77.3367 21.3136 76.6368 20.0787C75.9576 18.8235 75.618 17.2849 75.618 15.4628C75.618 13.6205 75.9267 12.0617 76.5442 10.7863C77.1823 9.51083 78.0571 8.53907 79.1686 7.87099C80.3007 7.18266 81.618 6.8385 83.1205 6.8385ZM83.1205 9.32862C81.9473 9.32862 81.0005 9.70316 80.2801 10.4522C79.5802 11.2013 79.1686 12.2641 79.0451 13.6408H86.8873C86.8873 12.7905 86.7535 12.0414 86.4859 11.3936C86.2183 10.7458 85.8066 10.2396 85.2509 9.87524C84.6952 9.51083 83.985 9.32862 83.1205 9.32862Z" fill="#BE0028"/>
<path d="M66.1739 6.8385C68.1087 6.8385 69.5907 7.31426 70.6199 8.26577C71.649 9.21728 72.1636 10.7458 72.1636 12.8512V23.5102H68.9218V13.3067C68.9218 12.0313 68.6439 11.0798 68.0882 10.4522C67.553 9.80438 66.6885 9.48046 65.4947 9.48046C63.8069 9.48046 62.6336 9.97646 61.975 10.9685C61.3369 11.9605 61.0178 13.3877 61.0178 15.2503V23.5102H57.7451V7.14217H60.3386L60.8017 9.32862H60.987C61.3575 8.76177 61.8103 8.29613 62.3455 7.93173C62.8806 7.56732 63.4775 7.29401 64.1362 7.11181C64.7949 6.9296 65.4741 6.8385 66.1739 6.8385Z" fill="#BE0028"/>
<path d="M47.344 6.8385C49.2788 6.8385 50.7608 7.31426 51.7899 8.26577C52.8191 9.21728 53.3337 10.7458 53.3337 12.8512V23.5102H50.0918V13.3067C50.0918 12.0313 49.8139 11.0798 49.2582 10.4522C48.723 9.80438 47.8585 9.48046 46.6647 9.48046C44.9769 9.48046 43.8037 9.97646 43.145 10.9685C42.5069 11.9605 42.1879 13.3877 42.1879 15.2503V23.5102H38.9152V7.14217H41.5086L41.9718 9.32862H42.157C42.5275 8.76177 42.9803 8.29613 43.5155 7.93173C44.0507 7.56732 44.6476 7.29401 45.3062 7.11181C45.9649 6.9296 46.6441 6.8385 47.344 6.8385Z" fill="#BE0028"/>
<path d="M214.499 21.2023C214.931 21.2023 215.374 21.1618 215.827 21.0808C216.28 20.9999 216.671 20.9088 217 20.8075V23.2369C216.65 23.3989 216.177 23.5305 215.58 23.6317C214.983 23.7532 214.386 23.8139 213.789 23.8139C212.883 23.8139 212.05 23.6621 211.288 23.3584C210.547 23.0547 209.95 22.5283 209.497 21.7793C209.045 21.0302 208.818 19.9876 208.818 18.6514V9.60198H206.503V8.14435L208.942 6.92965L210.084 3.46777H212.091V7.14222H216.846V9.60198H212.091V18.5907C212.091 19.4815 212.307 20.1394 212.739 20.5646C213.192 20.9897 213.779 21.2023 214.499 21.2023Z" fill="#0077B6"/>
<path d="M198.417 6.8385C200.352 6.8385 201.834 7.31426 202.863 8.26577C203.892 9.21728 204.407 10.7458 204.407 12.8512V23.5102H201.165V13.3067C201.165 12.0313 200.887 11.0798 200.331 10.4522C199.796 9.80438 198.932 9.48046 197.738 9.48046C196.05 9.48046 194.877 9.97646 194.218 10.9685C193.58 11.9605 193.261 13.3877 193.261 15.2503V23.5102H189.988V7.14217H192.582L193.045 9.32862H193.23C193.601 8.76177 194.053 8.29613 194.589 7.93173C195.124 7.56732 195.721 7.29401 196.379 7.11181C197.038 6.9296 197.717 6.8385 198.417 6.8385Z" fill="#0077B6"/>
<path d="M179.791 6.8385C181.253 6.8385 182.508 7.14218 183.558 7.74952C184.608 8.33662 185.411 9.18691 185.966 10.3004C186.543 11.4138 186.831 12.7298 186.831 14.2481V16.0094H175.654C175.695 17.6898 176.138 18.9753 176.982 19.8661C177.846 20.7569 179.05 21.2023 180.594 21.2023C181.664 21.2023 182.611 21.1112 183.435 20.929C184.279 20.7265 185.143 20.433 186.028 20.0483V22.7206C185.205 23.085 184.361 23.3583 183.496 23.5405C182.652 23.7227 181.644 23.8139 180.471 23.8139C178.865 23.8139 177.445 23.5001 176.21 22.8725C174.975 22.2449 174.008 21.3136 173.308 20.0787C172.628 18.8235 172.289 17.2849 172.289 15.4628C172.289 13.6205 172.598 12.0617 173.215 10.7863C173.853 9.51083 174.728 8.53907 175.839 7.87099C176.971 7.18266 178.289 6.8385 179.791 6.8385ZM179.791 9.32862C178.618 9.32862 177.671 9.70316 176.951 10.4522C176.251 11.2013 175.839 12.2641 175.716 13.6408H183.558C183.558 12.7905 183.424 12.0414 183.157 11.3936C182.889 10.7458 182.477 10.2396 181.922 9.87524C181.366 9.51083 180.656 9.32862 179.791 9.32862Z" fill="#0077B6"/>
<path d="M169.033 7.14217V23.5102H165.76V7.14217H169.033ZM167.427 0.91687C167.921 0.91687 168.353 1.05858 168.724 1.34201C169.094 1.62544 169.28 2.1012 169.28 2.76928C169.28 3.41711 169.094 3.89287 168.724 4.19654C168.353 4.47997 167.921 4.62169 167.427 4.62169C166.892 4.62169 166.439 4.47997 166.069 4.19654C165.719 3.89287 165.544 3.41711 165.544 2.76928C165.544 2.1012 165.719 1.62544 166.069 1.34201C166.439 1.05858 166.892 0.91687 167.427 0.91687Z" fill="#0077B6"/>
<path d="M160.857 21.2023C161.289 21.2023 161.731 21.1618 162.184 21.0808C162.637 20.9999 163.028 20.9088 163.358 20.8075V23.2369C163.008 23.3989 162.534 23.5305 161.937 23.6317C161.34 23.7532 160.743 23.8139 160.147 23.8139C159.241 23.8139 158.407 23.6621 157.646 23.3584C156.905 23.0547 156.308 22.5283 155.855 21.7793C155.402 21.0302 155.176 19.9876 155.176 18.6514V9.60198H152.86V8.14435L155.299 6.92965L156.442 3.46777H158.448V7.14222H163.203V9.60198H158.448V18.5907C158.448 19.4815 158.665 20.1394 159.097 20.5646C159.55 20.9897 160.136 21.2023 160.857 21.2023Z" fill="#0077B6"/>
<path d="M144.517 6.8385C146.617 6.8385 148.181 7.29401 149.21 8.20503C150.239 9.09581 150.754 10.5028 150.754 12.4261V23.5102H148.438L147.79 21.2326H147.666C147.193 21.8197 146.699 22.3056 146.184 22.6903C145.69 23.0749 145.114 23.3583 144.455 23.5405C143.817 23.7227 143.035 23.8139 142.109 23.8139C141.121 23.8139 140.226 23.6418 139.423 23.2976C138.641 22.9332 138.023 22.3866 137.57 21.6578C137.118 20.9087 136.891 19.9774 136.891 18.864C136.891 17.2039 137.529 15.9386 138.805 15.0681C140.102 14.1975 142.068 13.7218 144.702 13.6408L147.543 13.5497V12.6387C147.543 11.424 147.265 10.5737 146.709 10.0878C146.154 9.60193 145.371 9.35899 144.363 9.35899C143.498 9.35899 142.675 9.48046 141.893 9.7234C141.111 9.96634 140.37 10.2599 139.67 10.6041L138.62 8.26577C139.402 7.86087 140.298 7.52683 141.306 7.26364C142.335 6.98022 143.406 6.8385 144.517 6.8385ZM145.289 15.7058C143.395 15.7867 142.078 16.1005 141.337 16.6472C140.617 17.1735 140.256 17.9226 140.256 18.8943C140.256 19.7446 140.514 20.3621 141.028 20.7467C141.563 21.1314 142.232 21.3237 143.035 21.3237C144.332 21.3237 145.402 20.9694 146.246 20.2609C147.09 19.5523 147.512 18.4894 147.512 17.0723V15.645L145.289 15.7058Z" fill="#0077B6"/>
<path d="M126.631 1.82788C129.513 1.82788 131.612 2.40486 132.93 3.55882C134.247 4.69253 134.906 6.28176 134.906 8.32649C134.906 9.23751 134.751 10.108 134.443 10.9381C134.154 11.7681 133.671 12.5172 132.992 13.1853C132.312 13.8331 131.407 14.3494 130.275 14.734C129.163 15.0984 127.794 15.2806 126.168 15.2806H123.791V23.5102H120.456V1.82788H126.631ZM126.384 4.59131H123.791V12.5172H125.798C127.053 12.5172 128.103 12.3856 128.947 12.1224C129.791 11.839 130.419 11.4037 130.83 10.8166C131.263 10.2093 131.479 9.41972 131.479 8.44796C131.479 7.15229 131.067 6.19066 130.244 5.56307C129.441 4.91523 128.154 4.59131 126.384 4.59131Z" fill="#0077B6"/>
</svg>
