<svg width="37" height="37" viewBox="0 0 37 37" fill="none" xmlns="http://www.w3.org/2000/svg">
<path d="M18.5 0C14.8411 0 11.2643 1.08501 8.22196 3.11781C5.17965 5.15062 2.80846 8.03992 1.40824 11.4204C0.00801576 14.8008 -0.358346 18.5205 0.355481 22.1092C1.06931 25.6978 2.83126 28.9942 5.41853 31.5815C8.0058 34.1687 11.3022 35.9307 14.8908 36.6445C18.4795 37.3583 22.1992 36.992 25.5796 35.5918C28.9601 34.1915 31.8494 31.8204 33.8822 28.778C35.915 25.7357 37 22.159 37 18.5C36.9948 13.5951 35.0441 8.89254 31.5758 5.42424C28.1075 1.95594 23.4049 0.00517968 18.5 0ZM18.5 34.1538C15.404 34.1538 12.3775 33.2358 9.80319 31.5157C7.22893 29.7956 5.22254 27.3508 4.03774 24.4905C2.85294 21.6301 2.54294 18.4826 3.14695 15.4461C3.75095 12.4095 5.24184 9.62029 7.43107 7.43106C9.6203 5.24183 12.4095 3.75094 15.4461 3.14694C18.4826 2.54293 21.6301 2.85293 24.4905 4.03773C27.3508 5.22253 29.7956 7.22893 31.5157 9.80319C33.2358 12.3774 34.1538 15.404 34.1538 18.5C34.1491 22.6502 32.4984 26.6291 29.5637 29.5637C26.6291 32.4984 22.6502 34.1491 18.5 34.1538ZM26.6222 17.4932C26.7545 17.6253 26.8595 17.7823 26.9311 17.955C27.0027 18.1278 27.0396 18.313 27.0396 18.5C27.0396 18.687 27.0027 18.8722 26.9311 19.045C26.8595 19.2177 26.7545 19.3747 26.6222 19.5068L20.9299 25.1991C20.6629 25.4662 20.3007 25.6162 19.9231 25.6162C19.5454 25.6162 19.1833 25.4662 18.9163 25.1991C18.6492 24.9321 18.4992 24.5699 18.4992 24.1923C18.4992 23.8147 18.6492 23.4525 18.9163 23.1855L22.1804 19.9231H11.3846C11.0072 19.9231 10.6452 19.7731 10.3784 19.5063C10.1115 19.2394 9.96154 18.8774 9.96154 18.5C9.96154 18.1226 10.1115 17.7606 10.3784 17.4937C10.6452 17.2269 11.0072 17.0769 11.3846 17.0769H22.1804L18.9163 13.8145C18.6492 13.5475 18.4992 13.1853 18.4992 12.8077C18.4992 12.4301 18.6492 12.0679 18.9163 11.8009C19.1833 11.5338 19.5454 11.3838 19.9231 11.3838C20.3007 11.3838 20.6629 11.5338 20.9299 11.8009L26.6222 17.4932Z" fill="#999999"/>
</svg>
