<svg width="40" height="40" viewBox="0 0 40 40" fill="none" xmlns="http://www.w3.org/2000/svg">
<circle cx="20" cy="20" r="20" fill="#EEEEEE"/>
<path d="M19.1523 25L15.6963 15.288H15.6323C15.6429 15.5013 15.6589 15.7893 15.6803 16.152C15.7016 16.5147 15.7176 16.904 15.7283 17.32C15.7389 17.736 15.7443 18.1467 15.7443 18.552V25H14.1763V13.576H16.6403L19.9203 22.744H19.9843L23.3603 13.576H25.8243V25H24.1443V18.456C24.1443 18.0827 24.1496 17.6987 24.1603 17.304C24.1816 16.8987 24.1976 16.52 24.2083 16.168C24.2296 15.816 24.2456 15.528 24.2563 15.304H24.1923L20.6403 25H19.1523Z" fill="#1A1A1A"/>
</svg>
